#N canvas 1620 680 999 778 10;
#X obj 176 195 adc~;
#X obj 176 470 dac~;
#X obj 176 367 *~ 1;
#X obj 198 10 r \$0-low @type float @range 0 1 @default 1;
#X obj 379 106 r \$0-high @type float @range 0 1 @default 1;
#X obj 359 365 *~ 1;
#X obj 286 38 r \$0-mid @type float @range 0 1 @default 1;
#X obj 263 362 *~ 1;
#X obj 360 318 hip~ 3000;
#X obj 261 282 hip~ 300;
#X obj 258 236 lop~ 10000;
#X obj 262 315 bp~ 750 0.3;
#X obj 175 319 lop~ 100;
#X obj 454 367 *~ 1;
#X obj 637 362 *~ 1;
#X obj 541 362 *~ 1;
#X obj 638 318 hip~ 3000;
#X obj 539 282 hip~ 300;
#X obj 536 236 lop~ 10000;
#X obj 540 315 bp~ 750 0.3;
#X obj 453 319 lop~ 100;
#X obj 294 67 r \$0-midfreq @type float @range 20 5000 @default 20
;
#X connect 0 0 10 0;
#X connect 0 0 12 0;
#X connect 0 0 8 0;
#X connect 0 1 20 0;
#X connect 0 1 18 0;
#X connect 0 1 16 0;
#X connect 2 0 1 0;
#X connect 3 0 2 1;
#X connect 3 0 13 1;
#X connect 4 0 5 1;
#X connect 4 0 14 1;
#X connect 5 0 1 0;
#X connect 6 0 7 1;
#X connect 6 0 15 1;
#X connect 7 0 1 0;
#X connect 8 0 5 0;
#X connect 9 0 11 0;
#X connect 10 0 9 0;
#X connect 11 0 7 0;
#X connect 12 0 2 0;
#X connect 13 0 1 1;
#X connect 14 0 1 1;
#X connect 15 0 1 1;
#X connect 16 0 14 0;
#X connect 17 0 19 0;
#X connect 18 0 17 0;
#X connect 19 0 15 0;
#X connect 20 0 13 0;
#X connect 21 0 11 1;
#X connect 21 0 19 1;
