#N canvas 160 318 502 474 10;
#X obj 76 410 dac~;
#X obj 77 115 osc~;
#X obj 112 114 phasor~;
#X obj 75 244 *~, f 8;
#X obj 76 352 lop~ 400;
#X obj 76 323 sqrt~;
#X obj 76 381 clip~ -0.9 0.9;
#X obj 120 215 r \$0-volume @type float @range 0 10 @default 1;
#X obj 77 83 mtof;
#X obj 121 303 r \$0-frequency @widget logfloatslider @range 100 10000
@default 400;
#X obj 77 32 notein;
#X obj 76 174 *~;
#X obj 182 115 / 127;
#X obj 35 82 print;
#X connect 1 0 11 0;
#X connect 2 0 11 0;
#X connect 3 0 5 0;
#X connect 4 0 6 0;
#X connect 5 0 4 0;
#X connect 6 0 0 0;
#X connect 6 0 0 1;
#X connect 7 0 3 1;
#X connect 8 0 1 0;
#X connect 8 0 2 0;
#X connect 9 0 4 1;
#X connect 10 0 8 0;
#X connect 10 0 13 0;
#X connect 10 1 12 0;
#X connect 11 0 3 0;
#X connect 12 0 11 1;
