#N canvas 939 327 1325 805 10;
#X obj 535 738 dac~;
#X obj 581 683 r \$0-volume @type float @range 0 10 @default 1;
#X obj 494 53 noise~;
#X obj 539 53 r \$0-white @type float @range 0 1 @default 0.2;
#X obj 536 712 *~ 1, f 8;
#X obj 648 105 noise~;
#X obj 648 129 fexpr~ if(abs($x + $y) > 1 \, $y - $x \, $x + $y);
#X obj 85 67 lop~ 250;
#X obj 85 94 lop~ 250;
#X obj 85 119 lop~ 250;
#X obj 85 145 lop~ 250;
#X obj 650 271 *~ 1, f 8;
#X obj 649 227 lop~ 1000;
#X obj 85 38 noise~;
#X obj 147 67 hip~ 50;
#X obj 147 94 hip~ 50;
#X obj 147 119 hip~ 50;
#X obj 147 145 hip~ 50;
#X obj 146 200 *~ 1, f 8;
#X obj 191 177 r \$0-dark @type float @range 0 1 @default 0.2;
#X obj 15 292 noise~;
#X obj 87 453 *~ 1, f 8;
#X obj 15 320 lop~ 15000;
#X obj 15 348 lop~ 15000;
#X obj 15 377 lop~ 15000;
#X obj 15 404 lop~ 15000;
#X obj 88 322 hip~ 5000;
#X obj 88 349 hip~ 5000;
#X obj 88 378 hip~ 5000;
#X obj 88 404 hip~ 5000;
#X obj 132 430 r \$0-fizzle @type float @range 0 1 @default 0.2;
#X obj 695 248 r \$0-grit @type float @range 0 1 @default 0.2;
#X obj 648 198 expr~ tanh($v1 * $v2);
#X floatatom 771 176 5 0 0 0 - - -;
#X obj 771 154 r \$0-grrrit @type float @range 1 10 @default 1;
#X obj 692 324 tgl 15 0 empty empty empty 17 7 0 10 #fcfcfc #000000
#000000 1 1;
#X obj 692 405 phasor~;
#X obj 769 324 tgl 15 0 empty empty empty 17 7 0 10 #fcfcfc #000000
#000000 1 1;
#X obj 769 405 phasor~;
#X obj 848 324 tgl 15 0 empty empty empty 17 7 0 10 #fcfcfc #000000
#000000 1 1;
#X obj 848 405 phasor~;
#X obj 691 441 *~ 1, f 8;
#X obj 692 377 random 7;
#X obj 769 377 random 9;
#X obj 848 377 random 12;
#X obj 692 349 metro 100;
#X obj 769 349 metro 500;
#X obj 848 349 metro 300;
#X obj 692 477 lop~ 100;
#X obj 754 477 hip~ 1000;
#X obj 691 560 *~ 1, f 8;
#X obj 595 712 *~ 1, f 8;
#X obj 917 322 tgl 15 0 empty empty empty 17 7 0 10 #fcfcfc #000000
#000000 1 1;
#X obj 917 403 phasor~;
#X obj 994 322 tgl 15 0 empty empty empty 17 7 0 10 #fcfcfc #000000
#000000 1 1;
#X obj 994 403 phasor~;
#X obj 1073 322 tgl 15 0 empty empty empty 17 7 0 10 #fcfcfc #000000
#000000 1 1;
#X obj 1073 403 phasor~;
#X obj 916 439 *~ 1, f 8;
#X obj 917 375 random 7;
#X obj 994 375 random 9;
#X obj 1073 375 random 12;
#X obj 917 347 metro 100;
#X obj 994 347 metro 500;
#X obj 1073 347 metro 300;
#X obj 917 475 lop~ 100;
#X obj 979 475 hip~ 1000;
#X obj 917 555 *~ 1, f 8;
#X obj 537 436 *~ 1;
#X obj 494 96 *~ 1, f 8;
#X obj 962 508 r \$0-crk @type float @range 0 1 @default 0.2;
#X obj 692 293 loadbang;
#X connect 1 0 4 1;
#X connect 1 0 51 1;
#X connect 2 0 69 0;
#X connect 3 0 69 1;
#X connect 4 0 0 0;
#X connect 5 0 6 0;
#X connect 6 0 32 0;
#X connect 7 0 8 0;
#X connect 8 0 9 0;
#X connect 9 0 10 0;
#X connect 10 0 14 0;
#X connect 11 0 68 0;
#X connect 12 0 11 0;
#X connect 13 0 7 0;
#X connect 14 0 15 0;
#X connect 15 0 16 0;
#X connect 16 0 17 0;
#X connect 17 0 18 0;
#X connect 18 0 68 0;
#X connect 19 0 18 1;
#X connect 20 0 22 0;
#X connect 21 0 68 0;
#X connect 22 0 23 0;
#X connect 23 0 24 0;
#X connect 24 0 25 0;
#X connect 25 0 26 0;
#X connect 26 0 27 0;
#X connect 27 0 28 0;
#X connect 28 0 29 0;
#X connect 29 0 21 0;
#X connect 30 0 21 1;
#X connect 31 0 11 1;
#X connect 32 0 12 0;
#X connect 33 0 32 1;
#X connect 34 0 33 0;
#X connect 35 0 45 0;
#X connect 36 0 41 0;
#X connect 37 0 46 0;
#X connect 38 0 41 0;
#X connect 39 0 47 0;
#X connect 40 0 41 0;
#X connect 41 0 48 0;
#X connect 41 0 49 0;
#X connect 42 0 36 0;
#X connect 42 0 36 1;
#X connect 43 0 38 0;
#X connect 43 0 38 1;
#X connect 44 0 40 0;
#X connect 45 0 42 0;
#X connect 46 0 43 0;
#X connect 47 0 44 0;
#X connect 48 0 50 0;
#X connect 49 0 50 0;
#X connect 50 0 4 0;
#X connect 51 0 0 1;
#X connect 52 0 62 0;
#X connect 53 0 58 0;
#X connect 54 0 63 0;
#X connect 55 0 58 0;
#X connect 56 0 64 0;
#X connect 57 0 58 0;
#X connect 58 0 65 0;
#X connect 58 0 66 0;
#X connect 59 0 53 0;
#X connect 59 0 53 1;
#X connect 60 0 55 0;
#X connect 60 0 55 1;
#X connect 61 0 57 0;
#X connect 62 0 59 0;
#X connect 63 0 60 0;
#X connect 64 0 61 0;
#X connect 65 0 67 0;
#X connect 66 0 67 0;
#X connect 67 0 51 0;
#X connect 68 0 4 0;
#X connect 68 0 51 0;
#X connect 69 0 68 0;
#X connect 70 0 50 1;
#X connect 70 0 67 1;
#X connect 71 0 35 0;
#X connect 71 0 37 0;
#X connect 71 0 39 0;
#X connect 71 0 52 0;
#X connect 71 0 54 0;
#X connect 71 0 56 0;
