#N canvas 1585 480 697 737 10;
#X obj 69 694 dac~;
#X obj 69 114 osc~;
#X obj 104 113 phasor~;
#X obj 116 483 r \$0-volume @type float @range 0 10 @default 1;
#X obj 177 111 osc~;
#X obj 214 109 phasor~;
#X obj 179 80 * 2;
#X obj 285 110 osc~;
#X obj 320 109 phasor~;
#X obj 285 80 * 3;
#X obj 408 108 osc~;
#X obj 443 107 phasor~;
#X obj 408 78 * 4;
#X obj 69 167 *~ 1;
#X obj 178 168 *~ 1;
#X obj 281 163 *~ 1;
#X obj 409 163 *~ 1;
#X obj 96 218 *~;
#X obj 178 217 *~;
#X obj 281 211 *~;
#X obj 325 295 *~ 0;
#X obj 346 264 r \$0-m1 @type float @range 0 10 @default 0;
#X obj 131 317 *~;
#X obj 188 314 *~;
#X obj 322 356 *~ 0;
#X obj 343 328 r \$0-m2 @type float @range 0 10 @default 0;
#X obj 69 86 * 1;
#X obj 70 572 lop~ 10000;
#X obj 71 512 *~ 1, f 8;
#X obj 70 644 hip~ 20;
#X obj 69 665 clip~ -1 1;
#X obj 432 27 r \$0-sine @type float @range 0 10 @default 1;
#X obj 69 142 *~ 1;
#X obj 179 141 *~ 1;
#X obj 282 140 *~ 1;
#X obj 410 136 *~ 1;
#X obj 70 455 *~ 0.01;
#X obj 475 51 r \$0-square @type float @range 0 10 @default 1;
#X obj 104 142 *~ 1;
#X obj 221 142 *~ 1;
#X obj 322 137 *~ 1;
#X obj 448 138 *~ 1;
#X obj 412 3 r \$0-freq @widget logfloatslider @range 0 10000 @default
100;
#X obj 127 530 r \$0-lopass @widget logfloatslider @range 0 15000 @default
10000;
#X obj 107 597 r \$0-hipass @widget logfloatslider @range 0 20000 @default
20;
#X connect 1 0 32 0;
#X connect 2 0 38 0;
#X connect 3 0 28 1;
#X connect 4 0 33 0;
#X connect 5 0 39 0;
#X connect 6 0 4 0;
#X connect 6 0 5 0;
#X connect 7 0 34 0;
#X connect 8 0 40 0;
#X connect 9 0 7 0;
#X connect 9 0 8 0;
#X connect 10 0 35 0;
#X connect 11 0 41 0;
#X connect 12 0 10 0;
#X connect 12 0 11 0;
#X connect 13 0 17 0;
#X connect 13 0 36 0;
#X connect 14 0 17 1;
#X connect 14 0 18 0;
#X connect 14 0 36 0;
#X connect 15 0 18 1;
#X connect 15 0 19 0;
#X connect 15 0 36 0;
#X connect 16 0 19 1;
#X connect 16 0 36 0;
#X connect 17 0 20 0;
#X connect 17 0 22 0;
#X connect 18 0 20 0;
#X connect 18 0 22 1;
#X connect 18 0 23 0;
#X connect 19 0 20 0;
#X connect 19 0 23 1;
#X connect 20 0 36 0;
#X connect 21 0 20 1;
#X connect 22 0 24 0;
#X connect 23 0 24 0;
#X connect 24 0 36 0;
#X connect 25 0 24 1;
#X connect 26 0 1 0;
#X connect 26 0 2 0;
#X connect 27 0 29 0;
#X connect 28 0 27 0;
#X connect 29 0 30 0;
#X connect 30 0 0 0;
#X connect 30 0 0 1;
#X connect 31 0 32 1;
#X connect 31 0 33 1;
#X connect 31 0 34 1;
#X connect 31 0 35 1;
#X connect 32 0 13 0;
#X connect 33 0 14 0;
#X connect 34 0 15 0;
#X connect 35 0 16 0;
#X connect 36 0 28 0;
#X connect 37 0 41 1;
#X connect 37 0 40 1;
#X connect 37 0 39 1;
#X connect 37 0 38 1;
#X connect 38 0 13 0;
#X connect 39 0 14 0;
#X connect 40 0 15 0;
#X connect 41 0 16 0;
#X connect 42 0 6 0;
#X connect 42 0 9 0;
#X connect 42 0 12 0;
#X connect 42 0 26 0;
#X connect 43 0 27 1;
#X connect 44 0 29 1;
